# xmcd CD database file
#
# Track frame offsets:
#	150
#	23953
#	45914
#	70401
#	91649
#	108528
#	126098
#	146806
#
# Disc length: 2237 seconds
#
# Revision: 2
# Processed by: cddbd v1.5.2PL0 Copyright (c) Steve Scherf et al.
# Submitted via: CDex 1.70beta2
#
DISCID=6808bb08
DTITLE=南波志帆 - 君に届くかな、私。
DYEAR=2009
DGENRE=Pop
TTITLE0=宇宙の中の二人ぼっち
TTITLE1=プールの青は嘘の青
TTITLE2=クラスメイト
TTITLE3=それでも言えない YOU&I
TTITLE4=じさくじえんど
TTITLE5=7回目の遅刻
TTITLE6=きっとすべては夜のせい
TTITLE7=セプテンバー
EXTD=YEAR: 2009
EXTT0=
EXTT1=
EXTT2=
EXTT3=
EXTT4=
EXTT5=
EXTT6=
EXTT7=
PLAYORDER=
